# xmcd
#
# Track frame offsets:
#	150
#	17625
#	30762
#	45821
#	70093
#	85543
#	108659
#	127433
#	148111
#	168493
#	193029
#	214844
#	231774
#
# Disc length: 3367 seconds
#
# Revision: 1
# Processed by: cddbd v1.5.1PL0 Copyright (c) Steve Scherf et al.
# Submitted via: audiograbber 1.83.01
#
DISCID=ac0d250d
DTITLE=Cliff Guy - Move On Over
DYEAR=1900
DGENRE=
TTITLE0=Age Old Stories
TTITLE1=West
TTITLE2=Pretty In Pink
TTITLE3=Dust Rises
TTITLE4=Move On Over
TTITLE5=Heave Ho
TTITLE6=Riding
TTITLE7=Campfire Night
TTITLE8=Australian Adventure
TTITLE9=Dreamtime
TTITLE10=The Stock Horse
TTITLE11=Fishing For The Future
TTITLE12=Rely On Me
EXTD=
EXTT0=
EXTT1=
EXTT2=
EXTT3=
EXTT4=
EXTT5=
EXTT6=
EXTT7=
EXTT8=
EXTT9=
EXTT10=
EXTT11=
EXTT12=
PLAYORDER=
